<svg xmlns="http://www.w3.org/2000/svg">
    <symbol id="calendar">
        <path d="M18.6667 2.33334V7.00001" stroke-width="1.5" stroke-linecap="round"
            stroke-linejoin="round" />
        <path d="M9.33333 2.33334V7.00001" stroke-width="1.5" stroke-linecap="round"
            stroke-linejoin="round" />
        <path d="M3.5 10.5H24.5" stroke-width="1.5" stroke-linecap="round"
            stroke-linejoin="round" />
        <path fill-rule="evenodd" clip-rule="evenodd"
            d="M22.1667 4.66669H5.83333C4.54417 4.66669 3.5 5.71085 3.5 7.00002V22.1667C3.5 23.4559 4.54417 24.5 5.83333 24.5H22.1667C23.4558 24.5 24.5 23.4559 24.5 22.1667V7.00002C24.5 5.71085 23.4558 4.66669 22.1667 4.66669Z"
            stroke-width="1.5" stroke-linecap="round" stroke-linejoin="round" />
        <path
            d="M8.18202 14.85C8.02102 14.85 7.89036 14.9806 7.89152 15.1416C7.89152 15.3026 8.02219 15.4333 8.18319 15.4333C8.34419 15.4333 8.47486 15.3026 8.47486 15.1416C8.47486 14.9806 8.34419 14.85 8.18202 14.85"
            stroke-width="1.5" stroke-linecap="round" stroke-linejoin="round" />
        <path
            d="M14.0154 14.85C13.8544 14.85 13.7237 14.9806 13.7249 15.1416C13.7249 15.3026 13.8556 15.4333 14.0166 15.4333C14.1776 15.4333 14.3082 15.3026 14.3082 15.1416C14.3082 14.9806 14.1776 14.85 14.0154 14.85"
            stroke-width="1.5" stroke-linecap="round" stroke-linejoin="round" />
        <path
            d="M19.8486 14.85C19.6876 14.85 19.557 14.9806 19.5581 15.1416C19.5581 15.3026 19.6888 15.4333 19.8498 15.4333C20.0108 15.4333 20.1415 15.3026 20.1415 15.1416C20.1415 14.9806 20.0108 14.85 19.8486 14.85"
            stroke-width="1.5" stroke-linecap="round" stroke-linejoin="round" />
        <path
            d="M8.18202 19.5166C8.02102 19.5166 7.89036 19.6473 7.89152 19.8083C7.89152 19.9693 8.02219 20.0999 8.18319 20.0999C8.34419 20.0999 8.47486 19.9693 8.47486 19.8083C8.47486 19.6473 8.34419 19.5166 8.18202 19.5166"
            stroke-width="1.5" stroke-linecap="round" stroke-linejoin="round" />
        <path
            d="M14.0154 19.5166C13.8544 19.5166 13.7237 19.6473 13.7249 19.8083C13.7249 19.9693 13.8556 20.0999 14.0166 20.0999C14.1776 20.0999 14.3082 19.9693 14.3082 19.8083C14.3082 19.6473 14.1776 19.5166 14.0154 19.5166"
            stroke-width="1.5" stroke-linecap="round" stroke-linejoin="round" />
    </symbol>
    <symbol id="folder">
        <path fill-rule="evenodd" clip-rule="evenodd"
            d="M9.47054 3.25C9.99716 3.25 10.4928 3.48689 10.8234 3.8898L10.9174 4.01558L12.3224 6.08063C12.3574 6.13195 12.4096 6.16781 12.4685 6.18253L12.5291 6.19H18C19.4625 6.19 20.6584 7.3317 20.745 8.77248L20.75 8.94V10.879L20.8853 10.9987L21.0192 11.134L21.1443 11.2793C21.6261 11.8799 21.8322 12.6523 21.7187 13.4081L21.6837 13.5966L20.5726 18.5966C20.3057 19.7976 19.2767 20.6679 18.0627 20.7445L17.8881 20.75H4.66466C4.02425 20.75 3.41007 20.4956 2.95724 20.0428C2.54968 19.6352 2.30286 19.097 2.25758 18.5265L2.25 18.3353V6C2.25 4.53747 3.3917 3.3416 4.83248 3.25502L5 3.25H9.47054ZM9.60435 11.75C9.06033 11.75 8.5841 12.1009 8.41708 12.6089L8.38414 12.7288L7.0218 18.8592C6.99725 18.9696 6.96535 19.0769 6.9267 19.1806L6.897 19.25H17.8881C18.4321 19.25 18.9083 18.8991 19.0754 18.3911L19.1083 18.2712L20.2194 13.2712C20.3017 12.901 20.2115 12.5136 19.9742 12.2178C19.8853 12.1069 19.7792 12.0134 19.6614 11.9398L19.5399 11.873C19.4149 11.813 19.2799 11.7738 19.1402 11.758L18.9992 11.75H9.60435ZM5 4.75H9.47054L9.53122 4.75747C9.5901 4.77219 9.64237 4.80806 9.67728 4.85937L11.0823 6.92442L11.1764 7.0502C11.5069 7.4531 12.0025 7.69 12.5291 7.69H18L18.1278 7.69645C18.7581 7.76047 19.25 8.29279 19.25 8.94V10.262L19.1908 10.2567C19.1273 10.2522 19.0634 10.25 18.9992 10.25H9.60434L9.42971 10.2555C8.2157 10.3322 7.18675 11.2024 6.91986 12.4034L5.55752 18.5338L5.52543 18.6448C5.39656 19.0039 5.05437 19.25 4.66466 19.25C4.42208 19.25 4.18943 19.1536 4.0179 18.9821C3.84637 18.8106 3.75 18.5779 3.75 18.3353V6L3.75645 5.87219C3.82047 5.24187 4.35279 4.75 5 4.75Z"
        />
    </symbol>
    <symbol id="headphones">
        <path
            d="M18 17H19C20.105 17 21 16.105 21 15V12C21 10.895 20.105 10 19 10H18C17.448 10 17 10.448 17 11V16C17 16.552 17.448 17 18 17ZM18 17V18C18 19.105 17.105 20 16 20H13.875M18.5 10V9.5C18.5 5.91 15.59 3 12 3C8.41 3 5.5 5.91 5.5 9.5V10M13.875 20C13.875 19.31 13.315 18.75 12.625 18.75H11.375C10.685 18.75 10.125 19.31 10.125 20C10.125 20.69 10.685 21.25 11.375 21.25H12.625C13.315 21.25 13.875 20.69 13.875 20ZM6 17H5C3.895 17 3 16.105 3 15V12C3 10.895 3.895 10 5 10H6C6.552 10 7 10.448 7 11V16C7 16.552 6.552 17 6 17Z"
            stroke-width="1.5" stroke-linecap="round" stroke-linejoin="round" />
    </symbol>
    <symbol id="home">
        <path
            d="M1.5699 9.38558C1.23057 9.62311 1.14804 10.0908 1.38558 10.4301C1.62311 10.7694 2.09076 10.852 2.4301 10.6144L1.5699 9.38558ZM12 3L12.4301 2.38558C12.1719 2.20481 11.8281 2.20481 11.5699 2.38558L12 3ZM21.5699 10.6144C21.9092 10.852 22.3769 10.7694 22.6144 10.4301C22.852 10.0908 22.7694 9.62311 22.4301 9.38558L21.5699 10.6144ZM14.25 21C14.25 21.4142 14.5858 21.75 15 21.75C15.4142 21.75 15.75 21.4142 15.75 21H14.25ZM8.25 21C8.25 21.4142 8.58579 21.75 9 21.75C9.41421 21.75 9.75 21.4142 9.75 21H8.25ZM3.75 10V9.25H2.25V10H3.75ZM9 22.1427H9.75V20.6427H9V22.1427ZM21.75 10V9.25H20.25V10H21.75ZM15 20.6427H14.25V22.1427H15V20.6427ZM2.4301 10.6144L12.4301 3.61442L11.5699 2.38558L1.5699 9.38558L2.4301 10.6144ZM11.5699 3.61442L21.5699 10.6144L22.4301 9.38558L12.4301 2.38558L11.5699 3.61442ZM15.75 21V15H14.25V21H15.75ZM15.75 15C15.75 13.4808 14.5192 12.25 13 12.25V13.75C13.6908 13.75 14.25 14.3092 14.25 15H15.75ZM13 12.25H11V13.75H13V12.25ZM11 12.25C9.48079 12.25 8.25 13.4808 8.25 15H9.75C9.75 14.3092 10.3092 13.75 11 13.75V12.25ZM8.25 15V21H9.75V15H8.25ZM2.25 10V19.3919H3.75V10H2.25ZM2.25 19.3919C2.25 20.9112 3.48159 22.1427 5.00083 22.1427V20.6427C4.31002 20.6427 3.75 20.0827 3.75 19.3919H2.25ZM5.00083 22.1427H9V20.6427H5.00083V22.1427ZM20.25 10V19.3919H21.75V10H20.25ZM20.25 19.3919C20.25 20.0827 19.69 20.6427 18.9992 20.6427V22.1427C20.5184 22.1427 21.75 20.9112 21.75 19.3919H20.25ZM18.9992 20.6427H15V22.1427H18.9992V20.6427Z"
        />
    </symbol>
    <symbol id="puzzle">
        <path d="M21.0037 15.6705V18.8919" stroke-width="1.5"
            stroke-linecap="round" stroke-linejoin="round" />
        <path
            d="M21.0027 7.275V10.4963H21.0037C20.537 10.4022 20.0537 10.4336 19.6031 10.5874C18.7658 10.8737 18.1305 11.5647 17.9154 12.4231C17.7132 13.2142 17.8877 14.0544 18.3881 14.6996C18.8886 15.3447 19.659 15.7227 20.4755 15.7235C20.6529 15.7232 20.8298 15.7055 21.0037 15.6705V18.8918C21.0037 19.452 20.7813 19.9891 20.3852 20.3852C19.9891 20.7813 19.452 21.0038 18.8918 21.0037H15.6705V21.0047C15.7647 20.538 15.7333 20.0547 15.5795 19.6041C15.2932 18.7668 14.6021 18.1315 13.7437 17.9164C12.9526 17.7142 12.1125 17.8887 11.4673 18.3891C10.8221 18.8896 10.4442 19.66 10.4433 20.4765C10.4436 20.6539 10.4614 20.8308 10.4963 21.0047L7.276 21.0037C6.10994 21.0039 5.16446 20.0589 5.16412 18.8928V15.6715C4.99021 15.7065 4.81329 15.7242 4.6359 15.7245C3.81937 15.7237 3.049 15.3458 2.54854 14.7006C2.04808 14.0554 1.87362 13.2152 2.07583 12.4241C2.29086 11.5657 2.92617 10.8747 3.76354 10.5884C4.2141 10.4346 4.69743 10.4032 5.16412 10.4973H5.16312V7.276C5.16308 6.71588 5.38556 6.17869 5.78163 5.78263C6.17769 5.38657 6.71488 5.16408 7.275 5.16412H10.4963C10.4614 4.99021 10.4436 4.81329 10.4433 4.6359C10.4442 3.81937 10.8221 3.049 11.4673 2.54854C12.1125 2.04808 12.9526 1.87362 13.7437 2.07583C14.6018 2.29148 15.2926 2.92655 15.5795 3.76354C15.7333 4.2141 15.7647 4.69743 15.6705 5.16412H18.8918C19.452 5.16408 19.9891 5.38657 20.3852 5.78263C20.7813 6.17869 21.0037 6.71588 21.0037 7.276"
            stroke-width="1.5" stroke-linecap="round" stroke-linejoin="round" />
    </symbol>
    <symbol id="question">
        <circle cx="12.0002" cy="11.9997" r="9.00375" stroke-width="1.5"
            stroke-linecap="round" stroke-linejoin="round" />
        <path
            d="M12 12.7114L13.3276 11.9738C13.9901 11.6058 14.401 10.9075 14.401 10.1496C14.3225 8.88929 13.2417 7.92852 11.9808 7.99833C10.8543 7.95156 9.85385 8.71311 9.599 9.81149"
            stroke-width="1.5" stroke-linecap="round" stroke-linejoin="round" />
        <path
            d="M12.1001 15.9018C12.1001 15.957 12.0553 16.0017 12 16.0017C11.9448 16.0017 11.9001 15.9569 11.9 15.9017C11.9 15.8465 11.9447 15.8017 12 15.8016C12.0265 15.8016 12.052 15.8121 12.0708 15.8309C12.0896 15.8497 12.1002 15.8752 12.1001 15.9018"
            stroke-width="1.5" stroke-linecap="round" stroke-linejoin="round" />
    </symbol>
    <symbol id="reward">
        <path
            d="M9 19.75C8.58579 19.75 8.25 20.0858 8.25 20.5C8.25 20.9142 8.58579 21.25 9 21.25V19.75ZM15 21.25C15.4142 21.25 15.75 20.9142 15.75 20.5C15.75 20.0858 15.4142 19.75 15 19.75V21.25ZM17 5.75C16.5858 5.75 16.25 6.08579 16.25 6.5C16.25 6.91421 16.5858 7.25 17 7.25V5.75ZM7 7.25C7.41421 7.25 7.75 6.91421 7.75 6.5C7.75 6.08579 7.41421 5.75 7 5.75V7.25ZM13 15.75H11V17.25H13V15.75ZM11 15.75C9.20521 15.75 7.75 14.2948 7.75 12.5H6.25C6.25 15.1232 8.37679 17.25 11 17.25V15.75ZM7.75 12.5V4.5H6.25V12.5H7.75ZM7.75 4.5C7.75 4.36221 7.86221 4.25 8 4.25V2.75C7.03379 2.75 6.25 3.53379 6.25 4.5H7.75ZM8 4.25H16V2.75H8V4.25ZM16 4.25C16.1378 4.25 16.25 4.36221 16.25 4.5H17.75C17.75 3.53379 16.9662 2.75 16 2.75V4.25ZM16.25 4.5V12.5H17.75V4.5H16.25ZM16.25 12.5C16.25 14.2948 14.7948 15.75 13 15.75V17.25C15.6232 17.25 17.75 15.1232 17.75 12.5H16.25ZM11.25 16.5V20.5H12.75V16.5H11.25ZM9 21.25H15V19.75H9V21.25ZM17 7.25H20V5.75H17V7.25ZM20 7.25C20.1378 7.25 20.25 7.36221 20.25 7.5H21.75C21.75 6.53379 20.9662 5.75 20 5.75V7.25ZM20.25 7.5V9.5H21.75V7.5H20.25ZM20.25 9.5C20.25 10.7428 19.2428 11.75 18 11.75V13.25C20.0712 13.25 21.75 11.5712 21.75 9.5H20.25ZM18 11.75H17V13.25H18V11.75ZM7 5.75H4V7.25H7V5.75ZM4 5.75C3.03379 5.75 2.25 6.53379 2.25 7.5H3.75C3.75 7.36221 3.86221 7.25 4 7.25V5.75ZM2.25 7.5V9.5H3.75V7.5H2.25ZM2.25 9.5C2.25 11.5712 3.92879 13.25 6 13.25V11.75C4.75721 11.75 3.75 10.7428 3.75 9.5H2.25ZM6 13.25H7V11.75H6V13.25Z"
        />
    </symbol>
    <symbol id="settings">
        <path
            d="M14.1213 9.87868C15.2929 11.0502 15.2929 12.9497 14.1213 14.1213C12.9497 15.2929 11.0502 15.2929 9.87868 14.1213C8.70711 12.9497 8.70711 11.0502 9.87868 9.87868C11.0502 8.70711 12.9497 8.70711 14.1213 9.87868"
            stroke-width="1.5" stroke-linecap="round" stroke-linejoin="round" />
        <path fill-rule="evenodd" clip-rule="evenodd"
            d="M16.18 18.725V18.725C16.683 19.228 17.5 19.228 18.003 18.725L18.725 18.003C19.228 17.5 19.228 16.683 18.725 16.18V16.18C18.343 15.798 18.231 15.225 18.441 14.727C18.463 14.674 18.485 14.621 18.506 14.567C18.689 14.101 19.143 13.801 19.643 13.801H19.71C20.422 13.801 20.999 13.224 20.999 12.512V11.491C20.999 10.779 20.422 10.202 19.71 10.202H19.643C19.143 10.202 18.689 9.901 18.506 9.436C18.485 9.382 18.463 9.329 18.441 9.276C18.231 8.778 18.343 8.205 18.725 7.823V7.823C19.228 7.32 19.228 6.503 18.725 6L18.003 5.278C17.5 4.775 16.683 4.775 16.18 5.278V5.278C15.798 5.66 15.225 5.772 14.727 5.562C14.674 5.54 14.621 5.518 14.567 5.497C14.101 5.311 13.8 4.856 13.8 4.356V4.289C13.8 3.577 13.223 3 12.511 3H11.49C10.777 3 10.2 3.577 10.2 4.289V4.356C10.2 4.856 9.899 5.31 9.434 5.493C9.38 5.515 9.327 5.536 9.274 5.559C8.776 5.769 8.203 5.657 7.821 5.275V5.275C7.318 4.772 6.501 4.772 5.998 5.275L5.275 5.997C4.772 6.5 4.772 7.317 5.275 7.82V7.82C5.657 8.202 5.769 8.775 5.559 9.273C5.536 9.327 5.515 9.38 5.494 9.434C5.311 9.899 4.856 10.2 4.356 10.2H4.289C3.577 10.2 3 10.777 3 11.489V12.51C3 13.223 3.577 13.8 4.289 13.8H4.356C4.856 13.8 5.31 14.101 5.493 14.566C5.514 14.62 5.536 14.673 5.558 14.726C5.768 15.224 5.656 15.797 5.274 16.179V16.179C4.771 16.682 4.771 17.499 5.274 18.002L5.996 18.724C6.499 19.227 7.316 19.227 7.819 18.724V18.724C8.201 18.342 8.774 18.23 9.272 18.44C9.325 18.462 9.378 18.484 9.432 18.505C9.898 18.688 10.198 19.142 10.198 19.642V19.709C10.198 20.421 10.775 20.998 11.487 20.998H12.508C13.22 20.998 13.797 20.421 13.797 19.709V19.642C13.797 19.142 14.098 18.688 14.563 18.505C14.617 18.484 14.67 18.462 14.723 18.44C15.224 18.231 15.797 18.343 16.18 18.725V18.725Z"
            stroke-width="1.5" stroke-linecap="round" stroke-linejoin="round" />
    </symbol>
    <symbol id="wallet">
        <g clip-path="url(#clip0_9285_197)">
            <path
                d="M3.039 7.91473H19C20.105 7.91473 21 8.80973 21 9.91473V18.9997C21 20.0997 20.1 20.9997 19 20.9997H5C3.895 20.9997 3 20.1047 3 18.9997V8.29074C3 7.45874 3.515 6.71373 4.294 6.41973L14.647 2.51074C15.301 2.26374 16 2.74673 16 3.44573V7.91373"
                stroke-width="1.5" stroke-linecap="round" stroke-linejoin="round" />
            <path
                d="M15.999 14.125C15.792 14.126 15.625 14.294 15.625 14.501C15.625 14.708 15.793 14.876 16 14.875C16.207 14.875 16.375 14.707 16.375 14.5C16.375 14.293 16.207 14.125 15.999 14.125"
                stroke-width="1.5" stroke-linecap="round" stroke-linejoin="round" />
        </g>
        <defs>
            <clipPath id="clip0_9285_197">
                <rect width="24" height="24" />
            </clipPath>
        </defs>
    </symbol>
    <symbol id="gift">
        <ellipse cx="40.7871" cy="12.8951" rx="10.6779" ry="10.233"
            transform="rotate(16.8995 40.7871 12.8951)" fill="#FFD283" />
        <path
            d="M63.7854 19.8454C62.1481 25.2344 46.5456 31.8491 41.1393 30.2066C35.733 28.564 40.6753 20.3477 44.2074 13.8974C46.7745 9.66161 51.5546 5.47124 56.9609 7.11375C62.3672 8.75626 65.4226 14.4564 63.7854 19.8454Z"
            fill="url(#paint0_linear_9285_162)" />
        <rect x="10.5195" y="27.1719" width="68.7282" height="60.5082" rx="3"
            transform="rotate(10.0116 10.5195 27.1719)" fill="url(#paint1_linear_9285_162)" />
        <rect x="37.0166" y="31.8496" width="18.6864" height="60.5082"
            transform="rotate(10.0116 37.0166 31.8496)" fill="url(#paint2_linear_9285_162)" />
        <path
            d="M7.81464 21.8913C9.02104 16.5018 14.3681 13.1108 19.7575 14.3172L71.7821 25.9626C77.1716 27.169 80.5627 32.516 79.3563 37.9055L79.2671 38.304C78.9051 39.9208 77.301 40.9382 75.6842 40.5762L9.99767 25.8727C8.38083 25.5108 7.36352 23.9067 7.72544 22.2898L7.81464 21.8913Z"
            fill="url(#paint3_linear_9285_162)" />
        <rect x="37.5332" y="18.2656" width="15.2368" height="13.4084"
            transform="rotate(12.5953 37.5332 18.2656)" fill="url(#paint4_linear_9285_162)" />
        <defs>
            <linearGradient id="paint0_linear_9285_162" x1="55.9613" y1="11.5123" x2="41.473"
                y2="20.0012" gradientUnits="userSpaceOnUse">
                <stop stop-color="#FFD080" />
                <stop offset="1" stop-color="#FFA841" />
            </linearGradient>
            <linearGradient id="paint1_linear_9285_162" x1="44.8836" y1="27.1719" x2="44.8836"
                y2="87.6801" gradientUnits="userSpaceOnUse">
                <stop stop-color="#DC69DD" />
                <stop offset="1" stop-color="#FFBFE6" />
            </linearGradient>
            <linearGradient id="paint2_linear_9285_162" x1="46.3598" y1="31.8496" x2="46.3598"
                y2="92.3579" gradientUnits="userSpaceOnUse">
                <stop stop-color="#FFA740" />
                <stop offset="1" stop-color="#FFF9C1" />
            </linearGradient>
            <linearGradient id="paint3_linear_9285_162" x1="45.7698" y1="20.1399" x2="42.8409"
                y2="33.2245" gradientUnits="userSpaceOnUse">
                <stop stop-color="#E071DF" />
                <stop offset="1" stop-color="#EE95E2" />
            </linearGradient>
            <linearGradient id="paint4_linear_9285_162" x1="45.1516" y1="18.2656" x2="45.1516"
                y2="31.674" gradientUnits="userSpaceOnUse">
                <stop stop-color="#FFAA45" />
                <stop offset="1" stop-color="#FFD282" />
            </linearGradient>
        </defs>
    </symbol>
    <symbol id="messages" fill="none">
        <path fill-rule="evenodd" clip-rule="evenodd"
            d="M19 21.5H15.5C14.5334 21.5 13.75 20.7166 13.75 19.75V15.0833C13.75 14.1167 14.5334 13.3333 15.5 13.3333H22.5C23.4666 13.3333 24.25 14.1167 24.25 15.0833V19.75C24.25 20.7166 23.4666 21.5 22.5 21.5H21.625V23.25L19 21.5Z"
            fill="#EEEEFF" stroke="#434B74" stroke-width="1.5" stroke-linecap="round"
            stroke-linejoin="round" />
        <path fill-rule="evenodd" clip-rule="evenodd"
            d="M10 17H16C17.657 17 19 15.657 19 14V6C19 4.343 17.657 3 16 3H4C2.343 3 1 4.343 1 6V14C1 15.657 2.343 17 4 17H5.5V20L10 17Z"
            fill="#FFF1CB" stroke="#434B74" stroke-width="1.5" stroke-linecap="round"
            stroke-linejoin="round" />
        <path
            d="M10.6768 10.3232C10.7744 10.4209 10.7744 10.5791 10.6768 10.6768C10.5791 10.7744 10.4209 10.7744 10.3232 10.6768C10.2256 10.5791 10.2256 10.4209 10.3232 10.3232C10.4209 10.2256 10.5791 10.2256 10.6768 10.3232"
            stroke="#434B74" stroke-width="1.5" stroke-linecap="round" stroke-linejoin="round" />
        <path
            d="M14.6768 10.3232C14.7744 10.4209 14.7744 10.5791 14.6768 10.6768C14.5791 10.7744 14.4209 10.7744 14.3232 10.6768C14.2256 10.5791 14.2256 10.4209 14.3232 10.3232C14.4209 10.2256 14.5791 10.2256 14.6768 10.3232"
            stroke="#434B74" stroke-width="1.5" stroke-linecap="round" stroke-linejoin="round" />
        <path
            d="M6.67678 10.3232C6.77441 10.4209 6.77441 10.5791 6.67678 10.6768C6.57915 10.7744 6.42085 10.7744 6.32322 10.6768C6.22559 10.5791 6.22559 10.4209 6.32322 10.3232C6.42085 10.2256 6.57915 10.2256 6.67678 10.3232"
            stroke="#434B74" stroke-width="1.5" stroke-linecap="round" stroke-linejoin="round" />
    </symbol>
    <symbol id="arrow-down">
        <path d="M1 1L5 5L9 1" stroke-width="1.2" stroke-linecap="round"
            stroke-linejoin="round" />
    </symbol>
    <symbol id="exit">
        <path d="M16.4445 8.44253L20.0019 12L16.4445 15.5575" stroke-width="1.5"
            stroke-linecap="round" stroke-linejoin="round" />
        <path d="M9.33191 12L20.0034 12" stroke-width="1.5" stroke-linecap="round"
            stroke-linejoin="round" />
        <path
            d="M7.55432 3.99666C5.58958 3.99666 3.99684 5.5894 3.99684 7.55414L3.99684 16.4458C3.99684 18.4106 5.58958 20.0033 7.55432 20.0033"
            stroke-width="1.5" stroke-linecap="round" stroke-linejoin="round" />
    </symbol>
    <symbol id="open-triangle">
        <path
            d="M5.6038 1.33436C5.80395 1.07436 6.19605 1.07436 6.3962 1.33436L11.2926 7.695C11.5457 8.02379 11.3113 8.5 10.8964 8.5H1.10358C0.688658 8.5 0.454275 8.02379 0.707374 7.695L5.6038 1.33436Z"
        />
    </symbol>
    <symbol id="close">
        <path d="M8 8L16 16" stroke-width="1.5" stroke-linecap="round"
            stroke-linejoin="round" />
        <path d="M16 8L8 16" stroke-width="1.5" stroke-linecap="round"
            stroke-linejoin="round" />
    </symbol>
</svg>